
<svg width="283" height="282" viewBox="0 0 283 282" fill="none" xmlns="http://www.w3.org/2000/svg">
<path fill-rule="evenodd" clip-rule="evenodd" d="M280.878 0C280.919 0.797407 281.003 1.68806 281.125 2.67569C282.747 19.8536 283.218 37.1207 282.536 54.3615C282.49 104.115 272.411 153.348 252.903 199.116C240.912 229.674 221.132 256.562 195.529 277.105C186.887 283.671 186.63 283.625 181.481 273.973C175.759 263.249 170.063 252.51 164.368 241.772C158.188 230.12 152.008 218.469 145.795 206.835C145.555 206.385 145.329 205.881 145.098 205.365C144.262 203.501 143.36 201.49 141.48 201.359C139.03 201.188 138.289 203.259 137.581 205.237C137.336 205.919 137.096 206.591 136.791 207.155C134.558 211.286 132.32 215.415 130.082 219.544C119.986 238.171 109.888 256.8 100.245 275.659C96.5844 282.818 93.5348 282.079 88.1668 277.933C68.0859 262.296 51.6403 242.485 39.967 219.87C4.2912 152.252 -3.85493 79.7048 1.49566 4.75195C1.54955 3.99714 1.6866 3.19803 1.82553 2.38793C1.96203 1.59203 2.10035 0.785527 2.16341 0H280.878ZM70.2381 156.18C71.9866 155.555 73.8435 155.29 75.6971 155.401C77.5233 155.399 79.3315 155.761 81.0163 156.466C82.701 157.171 84.2285 158.204 85.5094 159.506C86.7904 160.808 87.7993 162.351 88.4771 164.047C89.1549 165.743 89.4881 167.557 89.4573 169.383C89.4264 171.209 89.0321 173.01 88.2973 174.682C87.5626 176.354 86.5021 177.863 85.1778 179.12C83.8536 180.378 82.2921 181.359 80.5845 182.006C78.8769 182.654 77.0574 182.954 75.2323 182.891C73.376 182.94 71.5291 182.612 69.8027 181.928C68.0764 181.244 66.5064 180.218 65.1873 178.911C63.8682 177.604 62.8272 176.044 62.1271 174.324C61.427 172.604 61.0823 170.76 61.1137 168.903C61.1451 167.047 61.5519 165.216 62.3097 163.521C63.0676 161.825 64.1607 160.301 65.5233 159.039C66.8858 157.778 68.4896 156.805 70.2381 156.18ZM103.484 78.9089C141.668 70.4543 163.085 90.4591 177.457 122.418C170.259 80.9902 138.826 61.7662 103.484 78.9089ZM184.016 113.793C176.696 71.6637 145.625 50.5542 108.638 68.3485C152.699 66.2631 158.603 69.8224 184.016 113.793Z" fill="white" fill-opacity="0.1"/>
</svg>
