<svg width="504" height="504" viewBox="0 0 504 504" fill="none" xmlns="http://www.w3.org/2000/svg">
<path d="M251.692 503.994C114.792 504.963 -0.444897 392.067 0.00129138 251.938C0.0129683 202.087 14.8102 153.36 42.521 111.92C70.2318 70.4804 109.611 38.1907 155.677 19.1358C201.743 0.0808569 252.425 -4.88306 301.313 4.872C350.201 14.6271 395.097 38.6628 430.321 73.9384C465.546 109.214 489.516 154.145 499.2 203.046C508.883 251.947 503.846 302.622 484.723 348.66C465.601 394.697 433.253 434.029 391.773 461.679C350.293 489.329 301.543 504.055 251.692 503.994ZM305.746 399.33L306.96 399.184C310.851 388.028 314.742 376.872 318.632 365.715C331.181 329.572 343.794 293.451 356.168 257.249C356.339 256.275 356.702 255.344 357.235 254.511C357.768 253.678 358.46 252.958 359.273 252.395C360.085 251.831 361.001 251.433 361.968 251.225C362.935 251.017 363.934 251.003 364.906 251.183C368.91 251.525 372.936 251.526 376.94 251.185C381.649 250.42 386.48 251.09 390.804 253.107C395.128 255.124 398.746 258.395 401.186 262.495C404.958 268.3 409.243 267.943 413.467 262.579C414.82 260.861 416.035 259.025 417.475 257.385C418.758 255.582 420.447 254.107 422.405 253.077C424.364 252.047 426.537 251.493 428.749 251.458C430.962 251.424 433.151 251.91 435.141 252.879C437.13 253.847 438.864 255.269 440.203 257.031C442.178 259.168 443.8 261.636 445.825 263.72C449.618 267.624 452.82 267.445 456.423 263.265C458.087 261.335 459.481 259.167 461.189 257.28C462.55 255.419 464.342 253.915 466.411 252.898C468.481 251.881 470.766 251.381 473.071 251.44C475.376 251.5 477.633 252.118 479.647 253.241C481.661 254.364 483.373 255.958 484.635 257.888C486.298 259.934 487.848 262.071 489.44 264.153C489.968 263.765 490.374 263.233 490.608 262.621C490.842 262.008 490.894 261.341 490.758 260.699C491.278 246.863 490.599 233.007 488.728 219.288C475.041 134.589 429.191 73.7387 352.428 35.7802C347.048 33.1196 345.746 33.8738 346.479 39.8084C347.575 51.4184 347.893 63.0887 347.433 74.7412C347.401 108.368 340.589 141.643 327.404 172.576C319.3 193.229 305.931 211.402 288.627 225.286C282.787 229.724 282.613 229.693 279.132 223.17C271.07 208.057 263.083 192.903 255.014 177.793C254.264 176.39 253.72 174.205 252.097 174.092C249.87 173.937 249.732 176.522 248.928 178.009C240.61 193.398 232.19 208.737 224.228 224.309C221.754 229.148 219.693 228.648 216.065 225.846C202.493 215.278 191.378 201.888 183.488 186.603C159.376 140.902 153.87 91.8699 157.486 41.2117C157.647 38.9565 158.907 36.1163 156.519 34.6357C154.46 33.3589 152.41 35.4364 150.503 36.3308C108.41 56.0754 73.0026 87.6885 48.6336 127.284C24.2646 166.88 11.9957 212.734 13.3351 259.208C13.3719 260.507 12.7481 262.194 14.6052 262.93C14.9641 262.821 15.3026 262.653 15.607 262.434C29.8548 247.209 33.8765 247.334 47.5233 263.446C48.0614 264.364 48.8236 265.132 49.7388 265.676C50.6539 266.22 51.6921 266.523 52.7562 266.557C53.8203 266.59 54.8756 266.354 55.8235 265.869C56.7713 265.384 57.5808 264.667 58.1761 263.784C59.1496 262.7 60.0643 261.564 60.9165 260.382C70.383 248.295 79.5477 248.293 88.7715 260.377C95.2446 268.858 98.3092 269.051 104.343 260.348C106.259 257.338 108.953 254.902 112.138 253.296C115.324 251.69 118.885 250.975 122.444 251.225C127.548 251.482 132.663 251.459 137.764 251.156C138.945 250.913 140.164 250.911 141.346 251.152C142.527 251.393 143.648 251.87 144.64 252.556C145.632 253.243 146.475 254.123 147.117 255.143C147.759 256.164 148.188 257.305 148.377 258.496C163.684 303.707 179.355 348.796 194.944 393.912C195.24 396.01 196.345 397.909 198.024 399.201L250.824 244.809L252.356 244.738L305.746 399.33ZM199.293 463.696C198.485 463.282 197.78 462.691 197.232 461.967C196.684 461.243 196.307 460.404 196.129 459.514C191.579 447.407 187.052 435.291 182.549 423.167C162.985 370.776 143.418 318.385 123.847 265.996C121.314 259.218 117.814 258.626 112.847 264.137C110.655 266.57 108.806 269.334 106.477 271.618C105.266 273.002 103.776 274.116 102.105 274.885C100.434 275.654 98.6197 276.061 96.7803 276.081C94.9409 276.1 93.1181 275.731 91.4313 274.997C89.7445 274.263 88.2317 273.181 86.9918 271.822C84.8455 269.595 82.8268 267.248 80.9453 264.792C76.3076 259.278 73.1058 259.273 68.6437 264.806C67.1566 266.65 65.7554 268.566 64.214 270.362C62.9809 272.019 61.3935 273.38 59.5676 274.345C57.7417 275.31 55.7233 275.856 53.6597 275.942C51.5961 276.028 49.5394 275.652 47.6396 274.842C45.7397 274.031 44.0448 272.807 42.6783 271.259C40.3862 268.938 38.637 266.092 36.4305 263.676C35.8564 262.774 35.0594 262.036 34.1165 261.532C33.1735 261.029 32.1167 260.777 31.0481 260.802C29.9794 260.827 28.9353 261.127 28.0165 261.673C27.0978 262.219 26.3355 262.993 25.8035 263.92C23.4459 266.685 22.0112 270.46 18.8034 272.218C17.0347 273.173 15.6541 274.715 14.8991 276.578C14.144 278.441 14.0616 280.508 14.6661 282.426C14.9524 284.591 15.2941 286.751 15.6657 288.903C29.2688 367.685 71.2108 426.503 141.636 464.252C186.417 488.254 237.874 496.787 288.006 488.522C339.188 481.103 386.497 457.017 422.607 419.993C443.406 399.159 460.022 374.535 471.559 347.451C480.545 326.492 486.555 304.379 489.415 281.754C489.752 279.102 490.362 276.076 487.618 274.214C484.148 271.551 481.145 268.328 478.734 264.678C474.829 259.52 470.662 259.55 466.677 264.517C465.195 266.364 463.922 268.385 462.379 270.176C461.036 271.99 459.281 273.459 457.259 274.461C455.238 275.464 453.007 275.973 450.75 275.945C448.493 275.917 446.276 275.353 444.279 274.3C442.283 273.248 440.565 271.736 439.268 269.889C437.879 268.201 436.55 266.462 435.179 264.758C430.826 259.345 428.032 259.263 423.322 264.519C421.258 266.822 419.506 269.424 417.314 271.59C415.279 273.853 412.532 275.352 409.528 275.839C406.524 276.326 403.444 275.772 400.798 274.267C397.629 272.439 394.978 269.834 393.094 266.697C390.892 263.751 388.79 260.271 384.589 260.744C380.167 261.243 380.287 265.739 379.155 268.76C355.637 331.536 332.167 394.331 308.747 457.143C308.289 459.776 306.873 462.146 304.772 463.798L252.451 309.562L251.245 309.763L199.293 463.696ZM207.637 143.031C206.384 142.955 205.129 143.134 203.947 143.557C202.765 143.98 201.682 144.637 200.761 145.49C199.84 146.342 199.101 147.372 198.589 148.518C198.077 149.664 197.802 150.902 197.78 152.156C197.759 153.411 197.992 154.657 198.465 155.82C198.938 156.982 199.642 158.037 200.534 158.92C201.425 159.803 202.486 160.497 203.653 160.959C204.82 161.422 206.068 161.643 207.323 161.61C208.556 161.653 209.786 161.45 210.94 161.012C212.094 160.575 213.149 159.911 214.044 159.061C214.94 158.212 215.656 157.192 216.153 156.062C216.649 154.932 216.916 153.714 216.937 152.48C216.958 151.246 216.732 150.02 216.274 148.874C215.816 147.728 215.134 146.685 214.269 145.805C213.403 144.925 212.37 144.227 211.232 143.75C210.093 143.274 208.871 143.029 207.637 143.031ZM226.417 91.332C252.224 85.6178 266.699 99.1383 276.413 120.739C271.548 92.7386 250.304 79.7458 226.417 91.332ZM280.846 114.909C275.899 86.4351 254.899 72.1679 229.901 84.1945C259.68 82.7851 263.67 85.1907 280.846 114.909Z" fill="rgba(1, 16, 25, 1)" />
</svg>
