<?xml version="1.0" standalone="no"?>
<!DOCTYPE svg PUBLIC "-//W3C//DTD SVG 20010904//EN"
 "http://www.w3.org/TR/2001/REC-SVG-20010904/DTD/svg10.dtd">
<svg version="1.0" xmlns="http://www.w3.org/2000/svg"
 width="500.000000pt" height="500.000000pt" viewBox="0 0 500.000000 500.000000"
 preserveAspectRatio="xMidYMid meet">
<metadata>
Created by potrace 1.14, written by Peter Selinger 2001-2017
</metadata>
<g transform="translate(0.000000,500.000000) scale(0.100000,-0.100000)"
fill="#000000" stroke="none">
<path d="M36 4983 c-26 -85 -42 -958 -23 -1258 11 -181 24 -344 32 -405 3 -19
7 -55 10 -80 7 -60 54 -378 60 -410 22 -112 57 -275 71 -335 8 -33 17 -71 20
-84 11 -51 115 -401 144 -486 197 -564 431 -1018 699 -1355 68 -86 331 -358
406 -420 122 -102 182 -140 220 -140 30 0 76 56 125 153 29 56 71 138 95 182
23 44 66 125 95 180 29 55 116 217 193 360 78 143 172 321 210 395 37 74 73
138 79 141 6 4 22 4 36 0 18 -5 36 -28 69 -91 71 -136 164 -311 193 -365 15
-27 55 -104 90 -170 34 -66 79 -151 100 -190 20 -38 61 -115 90 -170 245 -463
238 -454 303 -423 138 66 476 397 676 662 52 68 201 290 201 299 0 3 17 34 38
68 44 73 182 355 182 372 0 3 8 22 17 43 9 22 17 41 18 44 1 3 7 16 12 30 120
277 299 849 349 1114 2 12 6 32 9 46 17 78 54 282 60 330 3 25 8 56 10 70 3
14 7 45 10 70 3 25 7 59 10 75 6 36 12 93 20 195 4 41 8 86 11 100 17 103 26
984 12 1195 -11 157 -19 248 -23 263 -4 9 -505 12 -2464 12 -2334 0 -2460 -1
-2465 -17z m2573 -1122 c88 -30 177 -75 232 -117 53 -41 166 -162 200 -214 86
-130 150 -279 190 -445 10 -44 19 -84 19 -89 0 -5 -37 53 -83 130 -157 263
-218 347 -331 459 -85 84 -161 132 -263 164 -115 37 -193 45 -443 44 -113 -1
-196 3 -185 7 11 4 34 14 50 21 17 7 32 13 35 14 3 1 37 11 76 23 39 12 93 25
120 28 27 3 51 7 53 10 2 2 56 2 120 0 97 -3 131 -9 210 -35z m-187 -165 c188
-36 372 -153 485 -309 20 -29 40 -54 43 -57 12 -11 92 -172 115 -234 26 -69
68 -226 62 -232 -2 -2 -21 31 -42 74 -49 97 -177 295 -224 345 -20 21 -49 53
-66 71 -111 120 -322 236 -476 261 -24 4 -53 9 -64 12 -30 6 -239 6 -272 -1
-15 -3 -48 -8 -73 -12 -24 -3 -48 -8 -52 -10 -5 -3 -8 -3 -8 0 0 8 81 42 147
62 147 44 296 55 425 30z m-976 -1479 c38 -20 91 -73 111 -112 9 -16 18 -56
21 -90 12 -150 -105 -266 -260 -260 -140 6 -240 112 -234 250 4 97 51 170 139
214 34 17 56 21 117 18 43 -2 88 -10 106 -20z"/>
</g>
</svg>
